<?xml version="1.0" encoding="utf-8"?>
<!-- Generator: Adobe Illustrator 17.1.0, SVG Export Plug-In . SVG Version: 6.00 Build 0)  -->
<!DOCTYPE svg PUBLIC "-//W3C//DTD SVG 1.1//EN" "http://www.w3.org/Graphics/SVG/1.1/DTD/svg11.dtd">
<svg version="1.1" id="Stickers" xmlns="http://www.w3.org/2000/svg" xmlns:xlink="http://www.w3.org/1999/xlink" x="0px" y="0px"
	 width="76px" height="30px" viewBox="0 0 76 30" enable-background="new 0 0 76 30" xml:space="preserve">
<symbol  id="Sticker_x5F_PI_x5F_ua_x5F_25m_x5F_Normal" viewBox="-29.12 -10 58.24 20">
	<g id="BG_6_">
	</g>
	<path id="Name_3_" fill="#595959" d="M-5.04-4l2.084,2.965l-1.928,2.739h1.209L-2.8,0.367c0.164-0.255,0.297-0.468,0.397-0.64
		C-2.245-0.036-2.1,0.174-1.968,0.355l0.962,1.349h1.155l-1.972-2.686L0.3-4h-1.188l-1.171,1.772L-2.37-1.75L-3.868-4H-5.04z
		 M6.138-3.07V-4H0.933C0.926-3.768,0.964-3.543,1.046-3.328c0.133,0.354,0.345,0.703,0.637,1.047
		C1.974-1.938,2.396-1.54,2.947-1.089c0.856,0.702,1.435,1.258,1.735,1.668s0.451,0.798,0.451,1.163
		c0,0.383-0.137,0.706-0.412,0.969c-0.273,0.264-0.631,0.395-1.07,0.395c-0.466,0-0.838-0.139-1.117-0.418s-0.422-0.666-0.425-1.16
		L1.116,1.629C1.184,2.37,1.44,2.935,1.884,3.323s1.04,0.583,1.789,0.583c0.755,0,1.354-0.209,1.793-0.629
		C5.907,2.859,6.127,2.34,6.127,1.721c0-0.315-0.064-0.625-0.193-0.93S5.591,0.166,5.292-0.17c-0.299-0.337-0.796-0.799-1.49-1.387
		c-0.58-0.486-0.953-0.816-1.117-0.99C2.52-2.721,2.384-2.896,2.276-3.07H6.138z M7.394-1.938l1.016,0.086
		c0.075-0.494,0.25-0.865,0.523-1.114C9.207-3.215,9.537-3.34,9.924-3.34c0.466,0,0.859,0.176,1.182,0.527
		c0.322,0.351,0.483,0.816,0.483,1.396c0,0.551-0.154,0.986-0.465,1.305c-0.31,0.318-0.715,0.479-1.217,0.479
		c-0.311,0-0.592-0.071-0.843-0.213S8.616-0.17,8.474-0.396L7.565-0.277l0.764,4.044h3.915V2.843H9.103L8.678,0.727
		c0.473,0.329,0.969,0.494,1.487,0.494c0.688,0,1.268-0.238,1.74-0.715c0.473-0.476,0.709-1.088,0.709-1.836
		c0-0.713-0.207-1.329-0.623-1.848c-0.504-0.638-1.193-0.957-2.067-0.957c-0.716,0-1.301,0.201-1.754,0.602
		C7.718-3.132,7.458-2.6,7.394-1.938z M14.027,1.704h1.504l1.499-4.565l1.664,4.565h1.392V-4h-0.967v4.592L17.433-4h-0.865
		l-1.595,4.813V-4h-0.945V1.704z M21.788,2.762v1.112h0.967V2.762H21.788z M21.788-4v5.704h0.967V-4H21.788z M28.169-1.91
		l0.951-0.124c-0.104-0.655-0.37-1.168-0.798-1.539c-0.429-0.37-0.954-0.556-1.577-0.556c-0.78,0-1.408,0.255-1.882,0.766
		c-0.475,0.51-0.712,1.241-0.712,2.193c0,0.616,0.102,1.155,0.307,1.617c0.203,0.462,0.514,0.809,0.932,1.039
		c0.417,0.231,0.871,0.347,1.361,0.347c0.619,0,1.126-0.156,1.52-0.47c0.395-0.313,0.646-0.759,0.758-1.335l-0.939-0.146
		c-0.09,0.384-0.248,0.672-0.476,0.865s-0.503,0.29-0.825,0.29c-0.486,0-0.883-0.175-1.187-0.523
		c-0.304-0.35-0.456-0.901-0.456-1.657c0-0.767,0.146-1.323,0.439-1.67c0.294-0.348,0.678-0.521,1.15-0.521
		c0.379,0,0.695,0.116,0.95,0.35C27.94-2.752,28.101-2.395,28.169-1.91z"/>
	<path id="Icon_PI_3_" fill="#007344" d="M-12.62,4c0.276,0,0.5-0.224,0.5-0.5S-12.344,3-12.62,3s-0.5,0.224-0.5,0.5
		S-12.896,4-12.62,4 M-12.62,5c-0.828,0-1.5-0.672-1.5-1.5s0.672-1.5,1.5-1.5s1.5,0.672,1.5,1.5S-11.792,5-12.62,5L-12.62,5z
		 M-11.267,8.146l-0.707,0.707l-6-6l0.707-0.707L-11.267,8.146z M-16.62,8c0.276,0,0.5-0.224,0.5-0.5S-16.344,7-16.62,7
		s-0.5,0.224-0.5,0.5S-16.896,8-16.62,8 M-16.62,9c-0.828,0-1.5-0.672-1.5-1.5s0.672-1.5,1.5-1.5s1.5,0.672,1.5,1.5
		S-15.792,9-16.62,9L-16.62,9z M-10.12-1.5c0,0.202-0.122,0.385-0.309,0.462c-0.188,0.076-0.401,0.034-0.545-0.108l-2-2l0.707-0.707
		l1.146,1.146V-9h1V-1.5z M-16.62-2c0.827,0,1.5-0.673,1.5-1.5v-3c0-0.827-0.673-1.5-1.5-1.5s-1.5,0.673-1.5,1.5v3
		C-18.12-2.673-17.447-2-16.62-2 M-16.62-1c-1.381,0-2.5-1.119-2.5-2.5v-3c0-1.381,1.119-2.5,2.5-2.5s2.5,1.119,2.5,2.5v3
		C-14.12-2.119-15.239-1-16.62-1L-16.62-1z M-20.12-8h-1v-1h1V-8L-20.12-8z M-25.62,6c1.378,0,2.5-1.122,2.5-2.5v-9
		c0-1.378-1.122-2.5-2.5-2.5s-2.5,1.122-2.5,2.5v9C-28.12,4.878-26.999,6-25.62,6 M-25.62,7c-1.933,0-3.5-1.567-3.5-3.5v-9
		c0-1.933,1.567-3.5,3.5-3.5s3.5,1.567,3.5,3.5v9C-22.12,5.433-23.687,7-25.62,7L-25.62,7z"/>
	<g id="Border_icon_6_">
		<polygon fill="none" points="-9.12,-10 -29.12,-10 -29.12,10 -9.12,10 		"/>
	</g>
</symbol>
<use xlink:href="#Sticker_x5F_PI_x5F_ua_x5F_25m_x5F_Normal"  width="58.24" height="20" x="-29.12" y="-10" transform="matrix(1 0 0 -1 38.1201 15)" overflow="visible"/>
</svg>
