<?xml version="1.0" encoding="utf-8"?>
<!-- Generator: Adobe Illustrator 17.1.0, SVG Export Plug-In . SVG Version: 6.00 Build 0)  -->
<!DOCTYPE svg PUBLIC "-//W3C//DTD SVG 1.1//EN" "http://www.w3.org/Graphics/SVG/1.1/DTD/svg11.dtd">
<svg version="1.1" id="Stickers" xmlns="http://www.w3.org/2000/svg" xmlns:xlink="http://www.w3.org/1999/xlink" x="0px" y="0px"
	 width="76px" height="30px" viewBox="0 0 76 30" enable-background="new 0 0 76 30" xml:space="preserve">
<symbol  id="Sticker_x5F_Star_x5F_ua_x5F_Normal" viewBox="-25.52 -10 51.039 20">
	<g id="BG_6_">
	</g>
	<path id="Name_4_" fill="#595959" d="M-1.485-4l3.024,7.874h1.123L5.885-4H4.697L3.779-1.615H0.486L-0.378-4H-1.485z M0.787-0.767
		h2.67L2.635,1.414c-0.25,0.662-0.438,1.207-0.559,1.633c-0.1-0.505-0.242-1.006-0.424-1.504L0.787-0.767z M6.809,1.704h0.967
		v-2.466c0.308,0,0.523,0.06,0.646,0.178s0.306,0.462,0.545,1.031c0.19,0.451,0.344,0.748,0.463,0.892
		c0.117,0.144,0.254,0.24,0.408,0.29c0.153,0.05,0.4,0.075,0.74,0.075h0.193v-0.8l-0.268,0.005c-0.255,0-0.418-0.038-0.489-0.112
		c-0.075-0.079-0.19-0.313-0.344-0.704C9.523-0.279,9.39-0.537,9.268-0.681C9.146-0.824,8.959-0.955,8.704-1.072
		c0.415-0.111,0.823-0.498,1.225-1.16L10.986-4H9.924L8.893-2.232c-0.212,0.354-0.396,0.588-0.554,0.7
		C8.182-1.419,7.993-1.363,7.775-1.363V-4H6.809V1.704z M11.861,1.704h0.967v-4.909h2.676v4.909h0.967v-4.909h0.623v-2.412h-0.795
		V-4h-4.438V1.704z M18.371,2.762v1.112h0.967V2.762H18.371z M18.371-4v5.704h0.967V-4H18.371z M25.52,1.704V-4h-0.961v2.224H24
		c-0.34,0-0.594-0.044-0.76-0.132c-0.167-0.088-0.409-0.369-0.729-0.846L21.669-4h-1.198l1.043,1.536
		c0.318,0.469,0.635,0.734,0.95,0.795c-0.552,0.075-0.96,0.274-1.228,0.597c-0.267,0.322-0.4,0.692-0.4,1.111
		c0,0.494,0.175,0.896,0.524,1.203c0.349,0.308,0.854,0.462,1.517,0.462H25.52z M24.559,0.904h-1.375
		c-0.576,0-0.948-0.09-1.114-0.27c-0.167-0.179-0.25-0.388-0.25-0.628c0-0.34,0.122-0.59,0.368-0.749
		c0.245-0.159,0.68-0.239,1.303-0.239h1.068V0.904z"/>
	<path id="Icon_Star_4_" fill="#FEDC01" d="M-15.52,6.742l2.194-4.439c0.145-0.295,0.427-0.5,0.753-0.547l4.903-0.712l-3.548-3.454
		c-0.236-0.23-0.344-0.561-0.287-0.886l0.837-4.877l-4.387,2.304c-0.146,0.076-0.305,0.114-0.465,0.114
		c-0.16,0-0.319-0.038-0.465-0.114l-4.387-2.304l0.837,4.877c0.057,0.325-0.051,0.656-0.287,0.886l-3.548,3.454l4.903,0.712
		c0.326,0.047,0.608,0.252,0.753,0.547L-15.52,6.742 M-15.52,9l-3.09-6.255l-6.91-1.003l5-4.868L-21.7-10l6.18,3.245L-9.34-10
		l-1.18,6.874l5,4.868l-6.91,1.003L-15.52,9z"/>
	<g id="Border_icon_6_">
		<polygon fill="none" points="-5.52,-10 -25.52,-10 -25.52,10 -5.52,10 		"/>
	</g>
</symbol>
<use xlink:href="#Sticker_x5F_Star_x5F_ua_x5F_Normal"  width="51.039" height="20" x="-25.52" y="-10" transform="matrix(1 0 0 -1 37.5195 15)" overflow="visible"/>
</svg>
